<svg data-v-423bf9ae="" xmlns="http://www.w3.org/2000/svg" viewBox="0 0 514 91" class="iconLeft"><!----><!----><!----><g data-v-423bf9ae="" id="78834db1-0263-40e5-bf14-842ac0613bda" fill="white" transform="matrix(4.2105263157894735,0,0,4.2105263157894735,115.36154117082296,8.726098349219875)"><path d="M1.96 7.64L6.09 7.64L6.09 6.92L1.96 6.92L1.96 3.53L6.37 3.53L6.37 2.80L1.19 2.80L1.19 12.60L6.37 12.60L6.37 11.87L1.96 11.87ZM11.45 7.01L11.80 6.50C11.49 6.20 11.14 6.05 10.74 6.05C10.04 6.05 9.54 6.41 9.24 7.13L9.24 6.16L8.54 6.16L8.54 12.60L9.24 12.60L9.24 8.68C9.24 8.18 9.37 7.72 9.62 7.31C9.87 6.90 10.19 6.69 10.58 6.69C10.92 6.69 11.21 6.80 11.45 7.01ZM13.06 3.29C13.06 3.44 13.11 3.57 13.22 3.67C13.32 3.77 13.44 3.82 13.59 3.82C13.74 3.82 13.87 3.77 13.97 3.67C14.07 3.57 14.13 3.44 14.13 3.29C14.13 3.14 14.07 3.01 13.97 2.91C13.87 2.81 13.74 2.76 13.59 2.76C13.44 2.76 13.32 2.81 13.22 2.91C13.11 3.01 13.06 3.14 13.06 3.29ZM13.24 6.16L13.24 12.60L13.94 12.60L13.94 6.16ZM18.98 2.72L19.39 2.13C19.11 1.75 18.70 1.57 18.16 1.57C17.60 1.57 17.18 1.77 16.91 2.18C16.64 2.58 16.51 3.12 16.51 3.78L16.51 6.16L15.88 6.16L15.88 6.86L16.51 6.86L16.51 12.60L17.21 12.60L17.21 6.86L18.89 6.86L18.89 6.16L17.21 6.16L17.21 3.92C17.21 3.41 17.28 3.01 17.42 2.72C17.56 2.44 17.80 2.30 18.16 2.30C18.48 2.30 18.76 2.44 18.98 2.72ZM19.53 6.16L22.25 12.26L20.72 15.68L21.49 15.68L25.69 6.16L24.88 6.16L22.62 11.44L20.33 6.16ZM26.88 1.68L26.88 12.60L27.58 12.60L27.58 1.68ZM29.82 3.29C29.82 3.44 29.87 3.57 29.97 3.67C30.08 3.77 30.20 3.82 30.35 3.82C30.50 3.82 30.63 3.77 30.73 3.67C30.83 3.57 30.88 3.44 30.88 3.29C30.88 3.14 30.83 3.01 30.73 2.91C30.63 2.81 30.50 2.76 30.35 2.76C30.20 2.76 30.08 2.81 29.97 2.91C29.87 3.01 29.82 3.14 29.82 3.29ZM30.00 6.16L30.00 12.60L30.70 12.60L30.70 6.16ZM38.16 7.64L42.29 7.64L42.29 6.92L38.16 6.92L38.16 3.53L42.57 3.53L42.57 2.80L37.39 2.80L37.39 12.60L42.57 12.60L42.57 11.87L38.16 11.87ZM43.69 6.16L46.63 12.95L49.57 6.16L48.76 6.16L46.63 11.16L44.51 6.16ZM50.92 7.35C51.52 6.91 52.21 6.69 52.98 6.69C54.02 6.69 54.54 7.12 54.54 7.98L54.54 9.06C54.04 8.80 53.46 8.67 52.81 8.67C52.11 8.67 51.49 8.85 50.95 9.21C50.40 9.58 50.13 10.08 50.13 10.71C50.13 11.37 50.36 11.88 50.81 12.22C51.25 12.57 51.74 12.74 52.28 12.74C52.83 12.74 53.31 12.63 53.71 12.40C54.12 12.17 54.39 11.85 54.54 11.44L54.54 12.60L55.24 12.60L55.24 7.98C55.24 6.67 54.49 6.02 52.98 6.02C52.06 6.02 51.24 6.29 50.51 6.82ZM50.85 10.71C50.85 10.25 51.03 9.89 51.41 9.63C51.78 9.37 52.27 9.24 52.86 9.24C53.41 9.24 53.97 9.35 54.54 9.56L54.54 10.08C54.54 10.67 54.34 11.15 53.94 11.53C53.54 11.91 53.06 12.10 52.49 12.10C51.99 12.10 51.59 11.97 51.30 11.72C51.00 11.47 50.85 11.13 50.85 10.71ZM57.97 8.68C57.97 8.15 58.17 7.69 58.55 7.31C58.93 6.94 59.40 6.75 59.96 6.75C60.52 6.75 60.90 6.90 61.10 7.20C61.30 7.51 61.40 7.95 61.40 8.54L61.40 12.60L62.10 12.60L62.10 8.40C62.10 7.58 61.94 6.98 61.61 6.61C61.28 6.23 60.77 6.05 60.10 6.05C59.08 6.05 58.37 6.45 57.97 7.27L57.97 6.16L57.27 6.16L57.27 12.60L57.97 12.60ZM64.50 9.38C64.50 8.53 64.73 7.88 65.18 7.43C65.64 6.97 66.24 6.75 66.98 6.75C67.60 6.75 68.16 6.98 68.65 7.45C69.14 7.91 69.38 8.56 69.38 9.38C69.38 10.20 69.14 10.85 68.65 11.31C68.16 11.78 67.60 12.01 66.98 12.01C66.24 12.01 65.64 11.79 65.18 11.33C64.73 10.88 64.50 10.23 64.50 9.38ZM63.98 13.02C63.98 13.86 64.24 14.54 64.75 15.05C65.26 15.56 65.95 15.82 66.82 15.82C67.75 15.82 68.52 15.53 69.15 14.94C69.77 14.35 70.08 13.52 70.08 12.46L70.08 6.16L69.38 6.16L69.38 7.57C69.14 7.10 68.81 6.72 68.38 6.45C67.96 6.18 67.47 6.05 66.91 6.05C66.01 6.05 65.27 6.35 64.67 6.96C64.08 7.56 63.78 8.37 63.78 9.38C63.78 10.39 64.08 11.20 64.67 11.80C65.27 12.41 66.01 12.71 66.91 12.71C67.47 12.71 67.96 12.58 68.38 12.31C68.81 12.04 69.14 11.66 69.38 11.19L69.38 12.46C69.38 13.34 69.15 14 68.68 14.45C68.22 14.90 67.60 15.12 66.82 15.12C66.12 15.12 65.59 14.92 65.23 14.53C64.86 14.13 64.68 13.63 64.68 13.02ZM76.99 8.85L72.44 8.85C72.46 8.25 72.70 7.74 73.14 7.33C73.57 6.91 74.13 6.71 74.79 6.71C75.42 6.71 75.93 6.92 76.32 7.34C76.71 7.76 76.93 8.26 76.99 8.85ZM72.41 9.48L77.71 9.48C77.72 9.43 77.73 9.38 77.73 9.32C77.73 8.33 77.46 7.53 76.91 6.94C76.36 6.34 75.66 6.05 74.79 6.05C73.85 6.05 73.11 6.36 72.54 6.98C71.98 7.60 71.69 8.40 71.69 9.38C71.69 10.34 72.00 11.14 72.61 11.77C73.22 12.40 73.97 12.71 74.86 12.71C76.03 12.71 76.98 12.18 77.69 11.10L77.13 10.65C76.89 11.07 76.58 11.41 76.18 11.65C75.78 11.90 75.37 12.03 74.93 12.03C74.19 12.03 73.59 11.79 73.13 11.30C72.67 10.82 72.43 10.22 72.41 9.48ZM79.41 1.68L79.41 12.60L80.11 12.60L80.11 1.68ZM81.79 9.38C81.79 10.33 82.09 11.13 82.70 11.76C83.30 12.39 84.06 12.71 84.97 12.71C85.87 12.71 86.63 12.39 87.23 11.76C87.84 11.13 88.14 10.33 88.14 9.38C88.14 8.43 87.84 7.63 87.23 7.00C86.63 6.37 85.87 6.05 84.97 6.05C84.06 6.05 83.30 6.37 82.70 7.00C82.09 7.63 81.79 8.43 81.79 9.38ZM82.49 9.38C82.49 8.62 82.71 7.99 83.16 7.48C83.61 6.97 84.21 6.72 84.97 6.72C85.72 6.72 86.32 6.97 86.77 7.48C87.22 7.99 87.44 8.62 87.44 9.38C87.44 10.14 87.22 10.77 86.77 11.28C86.32 11.79 85.72 12.04 84.97 12.04C84.21 12.04 83.61 11.79 83.16 11.28C82.71 10.77 82.49 10.14 82.49 9.38ZM93.95 10.08C93.95 10.61 93.76 11.07 93.38 11.45C93.00 11.82 92.53 12.01 91.97 12.01C91.41 12.01 91.03 11.86 90.83 11.56C90.62 11.25 90.52 10.81 90.52 10.22L90.52 6.16L89.82 6.16L89.82 10.36C89.82 11.18 89.99 11.78 90.32 12.15C90.65 12.53 91.15 12.71 91.83 12.71C92.85 12.71 93.56 12.31 93.95 11.49L93.95 12.60L94.65 12.60L94.65 6.16L93.95 6.16Z"></path></g><!----><g data-v-423bf9ae="" id="5d49d560-a258-4820-a4f4-c0f4923cf145" transform="matrix(1.0037333170572917,0,0,1.0037333170572917,0.8139620930887688,0.6633742703124881)" stroke="none" fill="white"><path d="M99.653 69.455l-9.922-15.887 6.179-1.761a2.289 2.289 0 1 0 .637-4.108l-6.284-4.168C89.392 19.42 69.448 0 45.17 0 20.265 0 0 20.263 0 45.168c0 24.906 20.265 45.168 45.17 45.168 16.057 0 30.933-8.671 38.976-22.376l5.02 8.036a2.29 2.29 0 0 0 3.152.73l6.604-4.118a2.291 2.291 0 0 0 .731-3.153zM48.518 11.768c2.925 0 6.242 0 6.816.463l.007.022c-.702.751-3.24 2.021-4.798 2.8-3.949 1.976-7.359 3.681-7.359 6.622 0 1.787 1.314 3.032 2.585 4.236 1.379 1.308 2.802 2.657 2.829 4.508.027 2.045-1.613 4.782-4.744 7.915-1.741 1.741-3.285 3.643-2.789 5.759.521 2.226 2.764 2.981 5.363 3.855 3.645 1.227 8.638 2.907 12.374 8.507 3.334 5-8.897 19.57-19.134 28.887a40.22 40.22 0 0 1-7.706-1.83c2.031-6.396 1.401-8.168-1.922-12.144-1.063-1.274-2.389-2.86-3.996-5.27-3.904-5.859-.353-9.811 4.322-14.01.57-.512 1.08-.972 1.493-1.383.628-.628 6.067-6.287 4.012-11.241-1.354-3.263-5.191-4.85-11.73-4.85-2.677 0-4.587-.809-5.841-2.474-3.12-4.141-1.79-12.784-.829-16.563 5.598-5.242 12.658-8.914 20.513-10.326 1.674 2.459 5.236 6.517 10.534 6.517zm-43.941 33.4c0-8.597 2.704-16.563 7.283-23.134-.277 4.3.141 9.346 2.778 12.854 2.147 2.855 5.345 4.304 9.504 4.304 6.182 0 7.306 1.553 7.504 2.029.581 1.403-1.117 4.337-3.021 6.248-.359.359-.813.765-1.314 1.214-3.729 3.35-11.493 10.322-5.073 19.953 1.746 2.615 3.216 4.378 4.291 5.665 2.344 2.807 2.592 3.178 1.203 7.464C14.063 75.228 4.577 61.303 4.577 45.168zM45.941 85.73c8.005-7.772 22.249-23.444 16.669-31.813-4.604-6.903-10.938-9.033-14.722-10.307-.67-.226-1.446-.487-1.991-.713.23-.302.599-.733 1.193-1.327 4.141-4.144 6.129-7.811 6.083-11.214-.051-3.781-2.581-6.18-4.254-7.766-.282-.269-.628-.597-.885-.867.928-.762 3.145-1.87 4.557-2.576 3.944-1.974 7.353-3.677 7.353-6.615 0-5.341-5.042-5.341-11.424-5.341-2.101 0-3.848-1.211-5.133-2.525.597-.024 1.182-.089 1.785-.089 20.682 0 37.885 15.679 40.288 35.769L70.407 30.36a2.29 2.29 0 0 0-3.534 2.206l4.119 31.096a2.285 2.285 0 0 0 1.593 1.887 2.28 2.28 0 0 0 2.378-.657l4.284-4.775 2.116 3.388c-6.765 13.32-20.468 21.937-35.422 22.225zm45.895-14.096L81.519 55.11a2.293 2.293 0 0 0-1.942-1.077c-.647 0-1.267.274-1.702.76l-2.997 3.341-2.805-21.179L89.88 48.768l-4.327 1.233a2.291 2.291 0 0 0-1.314 3.412l10.319 16.521-2.722 1.7z"></path></g><!----></svg>